<svg xmlns="http://www.w3.org/2000/svg" viewBox="0 0 128 128" width="128" height="128">
  <!-- 身体 -->
  <ellipse cx="64" cy="74" rx="42" ry="38" fill="#7dd3fc"/>
  <ellipse cx="64" cy="78" rx="34" ry="28" fill="#bae6fd" opacity="0.55"/>
  <!-- 耳朵 -->
  <path d="M30 44 L24 18 L50 36 Z" fill="#7dd3fc"/>
  <path d="M98 44 L104 18 L78 36 Z" fill="#7dd3fc"/>
  <path d="M32 40 L29 26 L44 36 Z" fill="#fbcfe8"/>
  <path d="M96 40 L99 26 L84 36 Z" fill="#fbcfe8"/>
  <!-- 眼睛 -->
  <circle cx="50" cy="70" r="7" fill="#1f2937"/>
  <circle cx="78" cy="70" r="7" fill="#1f2937"/>
  <circle cx="52" cy="68" r="2.4" fill="#ffffff"/>
  <circle cx="80" cy="68" r="2.4" fill="#ffffff"/>
  <!-- 腮红 -->
  <ellipse cx="40" cy="82" rx="7" ry="4.5" fill="#f9a8d4" opacity="0.7"/>
  <ellipse cx="88" cy="82" rx="7" ry="4.5" fill="#f9a8d4" opacity="0.7"/>
  <!-- 嘴 -->
  <path d="M58 84 Q64 90 70 84" stroke="#1f2937" stroke-width="2.4" fill="none" stroke-linecap="round"/>
  <!-- 脚 -->
  <ellipse cx="50" cy="110" rx="9" ry="5" fill="#38bdf8"/>
  <ellipse cx="78" cy="110" rx="9" ry="5" fill="#38bdf8"/>
  <!-- 尾巴 -->
  <path d="M104 80 q22 4 14 26" stroke="#7dd3fc" stroke-width="7" fill="none" stroke-linecap="round"/>
</svg>
